<svg height='100px' width='100px'  fill="#FFFFFF" xmlns:x="http://ns.adobe.com/Extensibility/1.0/" xmlns:i="http://ns.adobe.com/AdobeIllustrator/10.0/" xmlns:graph="http://ns.adobe.com/Graphs/1.0/" xmlns="http://www.w3.org/2000/svg" xmlns:xlink="http://www.w3.org/1999/xlink" version="1.1" x="0px" y="0px" viewBox="0 0 50 50" enable-background="new 0 0 50 50" xml:space="preserve"><g><g i:extraneous="self"><g><path fill="#FFFFFF" d="M41.4,2.5h-32c-1.7,0-3,1.3-3,3v39.8c0,1.7,1.3,3,3,3h32c1.7,0,3-1.3,3-3V5.5C44.4,3.9,43.1,2.5,41.4,2.5     z M42.4,45.3c0,0.6-0.5,1-1,1h-32c-0.5,0-1-0.4-1-1V5.5c0-0.6,0.5-1,1-1h24.8l8.2,8.2c0,0,0,0,0,0V45.3z M42.4,9.9L37,4.5h4.4     c0.5,0,1,0.4,1,1V9.9z"></path></g><g><path fill="#FFFFFF" d="M35.5,13h-15c-0.6,0-1-0.4-1-1s0.4-1,1-1h15c0.6,0,1,0.4,1,1S36.1,13,35.5,13z"></path></g><g><path fill="#FFFFFF" d="M33.2,17H20.5c-0.6,0-1-0.4-1-1s0.4-1,1-1h12.7c0.6,0,1,0.4,1,1S33.7,17,33.2,17z"></path></g><g><path fill="#FFFFFF" d="M35.5,39h-15c-0.6,0-1-0.4-1-1s0.4-1,1-1h15c0.6,0,1,0.4,1,1S36.1,39,35.5,39z"></path></g><g><path fill="#FFFFFF" d="M33.2,43H20.5c-0.6,0-1-0.4-1-1s0.4-1,1-1h12.7c0.6,0,1,0.4,1,1S33.7,43,33.2,43z"></path></g><g><path fill="#FFFFFF" d="M35.5,26h-15c-0.6,0-1-0.4-1-1s0.4-1,1-1h15c0.6,0,1,0.4,1,1S36.1,26,35.5,26z"></path></g><g><path fill="#FFFFFF" d="M33.2,30H20.5c-0.6,0-1-0.4-1-1s0.4-1,1-1h12.7c0.6,0,1,0.4,1,1S33.7,30,33.2,30z"></path></g><g><path fill="#FFFFFF" d="M16.6,14c0,0.6-0.5,1-1,1h-1v1c0,0.6-0.5,1-1,1s-1-0.4-1-1v-1h-1c-0.5,0-1-0.4-1-1c0-0.6,0.5-1,1-1h1v-1     c0-0.6,0.5-1,1-1s1,0.4,1,1v1h1C16.2,13,16.6,13.5,16.6,14z"></path></g><g><path fill="#FFFFFF" d="M16.6,26.6c0,0.6-0.5,1-1,1h-1v1c0,0.6-0.5,1-1,1s-1-0.4-1-1v-1h-1c-0.5,0-1-0.4-1-1c0-0.5,0.5-1,1-1h1     v-1c0-0.5,0.5-1,1-1s1,0.5,1,1v1h1C16.2,25.6,16.6,26.1,16.6,26.6z"></path></g><g><path fill="#FFFFFF" d="M16.6,40c0,0.6-0.5,1-1,1h-1v1c0,0.6-0.5,1-1,1s-1-0.4-1-1v-1h-1c-0.5,0-1-0.4-1-1c0-0.6,0.5-1,1-1h1v-1     c0-0.6,0.5-1,1-1s1,0.4,1,1v1h1C16.2,39,16.6,39.5,16.6,40z"></path></g></g></g></svg>