<svg height='100px' width='100px'  fill="#FFFFFF" xmlns:x="http://ns.adobe.com/Extensibility/1.0/" xmlns:i="http://ns.adobe.com/AdobeIllustrator/10.0/" xmlns:graph="http://ns.adobe.com/Graphs/1.0/" xmlns="http://www.w3.org/2000/svg" xmlns:xlink="http://www.w3.org/1999/xlink" version="1.1" x="0px" y="0px" viewBox="0 0 50 50" enable-background="new 0 0 50 50" xml:space="preserve"><g><g i:extraneous="self"><g><path fill="#FFFFFF" d="M44.9,4H5.1c-1.7,0-3,1.3-3,3v28.4c0,1.7,1.3,3,3,3h12.4v6.4H10c-0.6,0-1,0.4-1,1c0,0.6,0.4,1,1,1h30     c0.6,0,1-0.4,1-1c0-0.6-0.4-1-1-1h-7.5v-6.4h12.4c1.7,0,3-1.3,3-3V7C47.9,5.4,46.6,4,44.9,4z M15.1,36.4v-9c0-0.6,0.5-1,1-1h6.4     l-1.7,1.7c-0.4,0.4-0.4,1,0,1.4l3,3.3l-2.2,3.6h-2.1v-3.3c0-0.6-0.4-1-1-1c-0.6,0-1,0.4-1,1v3.3H15.1z M25,31.2l-2.1-2.3l2.1-2     l2.1,2L25,31.2z M26.1,36.4h-2.2l1.1-1.8L26.1,36.4z M25,24.4c-4,0-7.2-3.2-7.2-7.2c0-4,3.2-7.2,7.2-7.2c4,0,7.2,3.2,7.2,7.2     C32.2,21.2,29,24.4,25,24.4z M19.5,44.8v-6.4h11v6.4H19.5z M34.9,36.4h-2.4v-3.3c0-0.6-0.4-1-1-1c-0.6,0-1,0.4-1,1v3.3h-2.1     l-2.2-3.6l3-3.3c0.4-0.4,0.3-1,0-1.4l-1.7-1.7h6.4c0.6,0,1,0.4,1,1V36.4z M45.9,35.4c0,0.6-0.5,1-1,1h-8v-9c0-1.6-1.3-3-3-3h-3.2     c2.1-1.7,3.5-4.3,3.5-7.2c0-5.1-4.1-9.2-9.2-9.2c-5.1,0-9.2,4.1-9.2,9.2c0,2.9,1.4,5.5,3.5,7.2h-3.2c-1.7,0-3,1.4-3,3v9h-8     c-0.5,0-1-0.4-1-1V7c0-0.6,0.5-1,1-1h39.8c0.5,0,1,0.4,1,1V35.4z"></path></g><g><path fill="#FFFFFF" d="M25,21.7c-2.5,0-4.5-2-4.5-4.5c0-0.6,0.4-1,1-1s1,0.4,1,1c0,1.4,1.1,2.5,2.5,2.5s2.5-1.1,2.5-2.5     c0-0.6,0.4-1,1-1s1,0.4,1,1C29.5,19.7,27.5,21.7,25,21.7z"></path></g></g></g></svg>