<svg height='100px' width='100px'  fill="#FFFFFF" xmlns:x="http://ns.adobe.com/Extensibility/1.0/" xmlns:i="http://ns.adobe.com/AdobeIllustrator/10.0/" xmlns:graph="http://ns.adobe.com/Graphs/1.0/" xmlns="http://www.w3.org/2000/svg" xmlns:xlink="http://www.w3.org/1999/xlink" version="1.1" x="0px" y="0px" viewBox="0 0 50 50" enable-background="new 0 0 50 50" xml:space="preserve"><g><g i:extraneous="self"><g><path fill="#FFFFFF" d="M46,35.9h-0.3c0.7-0.9,1.2-2.1,1.2-3.3c0-2.9-2.4-5.3-5.3-5.3s-5.3,2.4-5.3,5.3c0,1.2,0.4,2.4,1.2,3.3     h-0.3c-1.3,0-2.3,1-2.3,2.3v6.6c0,1.7,1.3,3,3,3h7.4c1.6,0,3-1.3,3-3v-6.6C48.3,36.9,47.3,35.9,46,35.9z M38.3,32.6     c0-1.8,1.5-3.3,3.3-3.3c1.8,0,3.3,1.5,3.3,3.3c0,1.8-1.5,3.3-3.3,3.3C39.8,35.9,38.3,34.4,38.3,32.6z M46.3,44.7c0,0.6-0.5,1-1,1     h-7.4c-0.6,0-1-0.4-1-1v-6.6c0-0.1,0.1-0.3,0.3-0.3H46c0.2,0,0.3,0.1,0.3,0.3V44.7z"></path></g><g><path fill="#FFFFFF" d="M13.6,35.9h-0.3c0.7-0.9,1.2-2.1,1.2-3.3c0-2.9-2.4-5.3-5.3-5.3s-5.3,2.4-5.3,5.3c0,1.2,0.4,2.4,1.2,3.3     H4.8c-1.3,0-2.3,1-2.3,2.3v6.6c0,1.7,1.3,3,3,3h7.4c1.7,0,3-1.3,3-3v-6.6C15.9,36.9,14.9,35.9,13.6,35.9z M5.9,32.6     c0-1.8,1.5-3.3,3.3-3.3c1.8,0,3.3,1.5,3.3,3.3c0,1.8-1.5,3.3-3.3,3.3C7.4,35.9,5.9,34.4,5.9,32.6z M13.9,44.7c0,0.6-0.5,1-1,1     H5.5c-0.6,0-1-0.4-1-1v-6.6c0-0.1,0.1-0.3,0.3-0.3h8.9c0.2,0,0.3,0.1,0.3,0.3V44.7z"></path></g><g><path fill="#FFFFFF" d="M40.9,2.3h-31c-1.6,0-3,1.4-3,3v16.9c0,1.6,1.4,3,3,3h31c1.7,0,3-1.4,3-3V5.3C43.9,3.7,42.5,2.3,40.9,2.3     z M29.3,23.3h-8v-7.5c0-0.1,0.1-0.1,0.1-0.1h7.8c0.1,0,0.1,0.1,0.1,0.1V23.3z M22.6,10.9c0-1.5,1.2-2.8,2.8-2.8     c1.5,0,2.8,1.2,2.8,2.8s-1.2,2.8-2.8,2.8C23.8,13.7,22.6,12.4,22.6,10.9z M41.9,22.3c0,0.5-0.5,1-1,1h-9.6v-7.5     c0-1.2-1-2.1-2.1-2.1c0.5-0.8,0.9-1.7,0.9-2.8c0-2.6-2.1-4.7-4.8-4.7c-2.6,0-4.8,2.1-4.8,4.7c0,1,0.3,2,0.9,2.8     c-1.2,0-2.1,0.9-2.1,2.1v7.5H9.9c-0.5,0-1-0.5-1-1V5.3c0-0.5,0.5-1,1-1h31c0.5,0,1,0.5,1,1V22.3z"></path></g><g><path fill="#FFFFFF" d="M29.8,35.9h-0.3c0.7-0.9,1.2-2.1,1.2-3.3c0-2.9-2.4-5.3-5.3-5.3S20,29.7,20,32.6c0,1.2,0.4,2.4,1.2,3.3     h-0.3c-1.3,0-2.3,1-2.3,2.3v6.6c0,1.7,1.3,3,3,3H29c1.6,0,3-1.3,3-3v-6.6C32,36.9,31,35.9,29.8,35.9z M22,32.6     c0-1.8,1.5-3.3,3.3-3.3c1.8,0,3.3,1.5,3.3,3.3c0,1.8-1.5,3.3-3.3,3.3C23.5,35.9,22,34.4,22,32.6z M30,44.7c0,0.6-0.5,1-1,1h-7.4     c-0.6,0-1-0.4-1-1v-6.6c0-0.1,0.1-0.3,0.3-0.3h8.9c0.2,0,0.3,0.1,0.3,0.3V44.7z"></path></g></g></g></svg>