<svg height='100px' width='100px'  fill="#FFFFFF" xmlns:x="http://ns.adobe.com/Extensibility/1.0/" xmlns:i="http://ns.adobe.com/AdobeIllustrator/10.0/" xmlns:graph="http://ns.adobe.com/Graphs/1.0/" xmlns="http://www.w3.org/2000/svg" xmlns:xlink="http://www.w3.org/1999/xlink" version="1.1" x="0px" y="0px" viewBox="0 0 50 50" enable-background="new 0 0 50 50" xml:space="preserve"><g><g i:extraneous="self"><g><path fill="#FFFFFF" d="M46,33.5h-1c1.1-1.2,1.8-2.8,1.8-4.5c0-3.6-2.9-6.5-6.5-6.5c-3.6,0-6.5,2.9-6.5,6.5     c0,1.8,0.7,3.3,1.8,4.5h-1c-0.6,0-1.2,0.2-1.7,0.6c-0.5-0.4-1-0.6-1.7-0.6h-1c1.1-1.2,1.8-2.8,1.8-4.5c0-3.6-2.9-6.5-6.5-6.5     c-3.6,0-6.5,2.9-6.5,6.5c0,1.8,0.7,3.3,1.8,4.5h-1c-0.6,0-1.2,0.2-1.6,0.6c-0.5-0.4-1-0.6-1.7-0.6h-1c1.1-1.2,1.8-2.8,1.8-4.5     c0-3.6-2.9-6.5-6.5-6.5c-3.6,0-6.5,2.9-6.5,6.5c0,1.8,0.7,3.3,1.8,4.5h-1c-1.5,0-2.7,1.2-2.7,2.7v11c0,0.6,0.5,1,1,1h44     c0.6,0,1-0.4,1-1v-11C48.7,34.7,47.5,33.5,46,33.5z M11,24.5c2.5,0,4.5,2,4.5,4.5c0,2.5-2,4.5-4.5,4.5c-2.5,0-4.5-2-4.5-4.5     C6.5,26.5,8.5,24.5,11,24.5z M17.3,46.2H4.7v-10c0-0.4,0.3-0.7,0.7-0.7h11.4c0.4,0,0.7,0.3,0.7,0.7V46.2z M25.7,24.5     c2.5,0,4.5,2,4.5,4.5c0,2.5-2,4.5-4.5,4.5c-2.5,0-4.5-2-4.5-4.5C21.2,26.5,23.2,24.5,25.7,24.5z M19.3,36.2     c0-0.4,0.3-0.7,0.6-0.7h11.4c0.4,0,0.7,0.3,0.7,0.7v10H19.3V36.2z M40.3,24.5c2.5,0,4.5,2,4.5,4.5c0,2.5-2,4.5-4.5,4.5     c-2.5,0-4.5-2-4.5-4.5C35.8,26.5,37.9,24.5,40.3,24.5z M46.7,46.2H34v-10c0-0.4,0.3-0.7,0.7-0.7H46c0.4,0,0.6,0.3,0.6,0.7V46.2z"></path></g><g><path fill="#FFFFFF" d="M21.8,22c-0.6,0-1-0.4-1-1c0-1.4-1.1-2.5-2.5-2.5s-2.5,1.1-2.5,2.5c0,0.6-0.4,1-1,1s-1-0.4-1-1     c0-2.5,2-4.5,4.5-4.5s4.5,2,4.5,4.5C22.8,21.6,22.4,22,21.8,22z"></path></g><g><path fill="#FFFFFF" d="M7.4,22c-0.6,0-1-0.4-1-1c0-1.4-1.1-2.5-2.5-2.5c-0.6,0-1-0.4-1-1s0.4-1,1-1c2.5,0,4.5,2,4.5,4.5     C8.4,21.6,7.9,22,7.4,22z"></path></g><g><path fill="#FFFFFF" d="M36.5,22c-0.6,0-1-0.4-1-1c0-1.4-1.1-2.5-2.5-2.5s-2.5,1.1-2.5,2.5c0,0.6-0.4,1-1,1s-1-0.4-1-1     c0-2.5,2-4.5,4.5-4.5s4.5,2,4.5,4.5C37.5,21.6,37.1,22,36.5,22z"></path></g><g><path fill="#FFFFFF" d="M44.2,22c-0.6,0-1-0.4-1-1c0-2.5,2-4.5,4.5-4.5c0.6,0,1,0.4,1,1s-0.4,1-1,1c-1.4,0-2.5,1.1-2.5,2.5     C45.2,21.6,44.7,22,44.2,22z"></path></g><g><path fill="#FFFFFF" d="M45.8,14H33.2c-1.7,0-3-1.3-3-3V5.5c0-1.7,1.3-3,3-3h12.6c1.7,0,3,1.3,3,3V11C48.8,12.6,47.4,14,45.8,14z      M33.2,4.5c-0.6,0-1,0.4-1,1V11c0,0.6,0.4,1,1,1h12.6c0.6,0,1-0.4,1-1V5.5c0-0.6-0.4-1-1-1H33.2z"></path></g><g><g><path fill="#FFFFFF" d="M34.7,9.3c-0.3,0-0.5-0.1-0.7-0.3s-0.3-0.4-0.3-0.7c0-0.3,0.1-0.5,0.3-0.7c0.4-0.4,1-0.4,1.4,0      c0.2,0.2,0.3,0.4,0.3,0.7c0,0.3-0.1,0.5-0.3,0.7C35.3,9.1,35,9.3,34.7,9.3z"></path></g><g><path fill="#FFFFFF" d="M38.3,8.3c0-0.6,0.5-1,1-1l0,0c0.6,0,1,0.4,1,1l0,0c0,0.6-0.4,1-1,1l0,0C38.7,9.2,38.3,8.8,38.3,8.3z"></path></g><g><path fill="#FFFFFF" d="M43.9,9.2c-0.3,0-0.5-0.1-0.7-0.3c-0.2-0.2-0.3-0.4-0.3-0.7c0-0.3,0.1-0.5,0.3-0.7      c0.4-0.4,1.1-0.4,1.4,0c0.2,0.2,0.3,0.4,0.3,0.7c0,0.3-0.1,0.5-0.3,0.7S44.1,9.2,43.9,9.2z"></path></g></g><g><path fill="#FFFFFF" d="M18.4,14H5.9c-1.7,0-3-1.3-3-3V5.5c0-1.7,1.3-3,3-3h12.6c1.7,0,3,1.3,3,3V11C21.4,12.6,20.1,14,18.4,14z      M5.9,4.5c-0.6,0-1,0.4-1,1V11c0,0.6,0.4,1,1,1h12.6c0.6,0,1-0.4,1-1V5.5c0-0.6-0.4-1-1-1H5.9z"></path></g><g><g><path fill="#FFFFFF" d="M7.4,9.2C7.1,9.2,6.9,9.1,6.7,9C6.5,8.8,6.4,8.5,6.4,8.2c0-0.3,0.1-0.5,0.3-0.7c0.4-0.4,1-0.4,1.4,0      C8.3,7.7,8.4,8,8.4,8.2c0,0.3-0.1,0.5-0.3,0.7C7.9,9.1,7.7,9.2,7.4,9.2z"></path></g><g><path fill="#FFFFFF" d="M11,8.2c0-0.6,0.4-1,1-1l0,0c0.5,0,1,0.4,1,1l0,0c0,0.6-0.5,1-1,1l0,0C11.4,9.2,11,8.8,11,8.2z"></path></g><g><path fill="#FFFFFF" d="M16.5,9.2c-0.3,0-0.5-0.1-0.7-0.3c-0.2-0.2-0.3-0.4-0.3-0.7c0-0.3,0.1-0.5,0.3-0.7c0.4-0.4,1-0.4,1.4,0      c0.2,0.2,0.3,0.4,0.3,0.7c0,0.3-0.1,0.5-0.3,0.7C17.1,9.1,16.8,9.2,16.5,9.2z"></path></g></g></g></g></svg>